# File created by Blade
# Date/Time:  Tue Apr 07 20:45:22 2015
# Frame Rate: 120.000 fps
#------------------------------------------------------
:FULLY-SPECIFIED
:DEGREES
569
root 1.704850 34.406047 -5.215547 15.188473 -19.564407 -47.164608
Spine 4.231653 24.366457 28.399284
Head 8.255715 -5.525784 19.344725
LeftShoulder -21.657464 26.505457 32.260729
LeftArm 78.771948 -76.774252 -58.592803
LeftForeArm 16.129656 0.000000 13.720272
LeftHand 9.822748 0.000000 17.930366
LeftHandThumb1 -26.253704 0.000000 33.147579
RightShoulder -9.058350 30.368016 -32.486555
RightArm 72.060248 79.028956 110.099021
RightForeArm 48.123498 -0.000000 57.647274
RightHand 1.392146 0.000000 29.908758
RightHandThumb1 -24.326973 -0.000000 -32.862282
LeftUpLeg -8.376833 0.593269 42.787942
LeftLeg 29.131569 -0.000000 -0.000000
LeftFoot -16.857416 11.230176 -31.981426
LeftToeBase -13.647408 -0.000000 0.000000
RightUpLeg -136.813031 -53.839773 19.937333
RightLeg -11.712595 -0.000000 0.000000
RightFoot 37.949559 -25.231736 16.118358
RightToeBase 13.808826 -0.000000 -0.000000
570
root 1.714321 34.415609 -5.254881 15.064784 -19.525379 -46.981467
Spine 4.359166 24.378137 28.260003
Head 8.240403 -5.625641 19.207457
LeftShoulder -21.631552 26.541040 32.233304
LeftArm 78.726278 -76.666909 -58.788754
LeftForeArm 16.007229 -0.000000 13.556230
LeftHand 9.716020 -0.000000 17.794497
LeftHandThumb1 -26.253704 0.000000 33.147579
RightShoulder -8.975940 30.321691 -32.349401
RightArm 72.654202 79.057978 110.694949
RightForeArm 48.227425 0.000000 57.592795
RightHand 1.325280 -0.000000 29.996684
RightHandThumb1 -24.326973 -0.000000 -32.862282
LeftUpLeg -8.424797 0.401781 42.971191
LeftLeg 29.244735 -0.000000 -0.000000
LeftFoot -16.083736 9.615749 -32.287434
LeftToeBase -13.604523 -0.000000 0.000000
RightUpLeg -136.717257 -53.687473 19.843378
RightLeg -11.756259 -0.000000 0.000000
RightFoot 38.009330 -25.150484 16.219031
RightToeBase 13.618324 -0.000000 -0.000000
571
root 1.725478 34.421934 -5.288918 14.936057 -19.446007 -46.751580
Spine 4.421291 24.341969 28.091472
Head 8.289586 -5.738309 19.010387
LeftShoulder -21.574243 26.543169 32.193151
LeftArm 78.404290 -76.538950 -58.705281
LeftForeArm 15.888087 -0.000000 13.388620
LeftHand 9.686034 -0.000000 17.555937
LeftHandThumb1 -26.253704 0.000000 33.147579
RightShoulder -8.929030 30.306264 -32.260468
RightArm 72.747315 79.059324 110.824706
RightForeArm 48.359701 -0.000000 57.523939
RightHand 1.361915 -0.000000 29.938582
RightHandThumb1 -24.326973 -0.000000 -32.862282
LeftUpLeg -8.435114 0.112035 43.103872
LeftLeg 29.202979 -0.000000 -0.000000
LeftFoot -15.391776 7.958067 -32.893766
LeftToeBase -13.897425 -0.000000 0.000000
RightUpLeg -136.764682 -53.509732 19.852292
RightLeg -11.768958 -0.000000 0.000000
RightFoot 37.998875 -25.071819 16.270184
RightToeBase 13.767544 -0.000000 -0.000000
572
root 1.738151 34.425743 -5.320180 14.778218 -19.379059 -46.516996
Spine 4.510115 24.328553 27.953602
Head 8.369846 -5.840076 18.765866
LeftShoulder -21.491630 26.630362 32.153199
LeftArm 78.399861 -76.431072 -59.062174
LeftForeArm 15.850684 -0.000000 13.378000
LeftHand 9.553316 -0.000000 17.177796
LeftHandThumb1 -26.253704 0.000000 33.147579
RightShoulder -8.869894 30.347332 -32.157472
RightArm 73.149282 79.093137 111.221856
RightForeArm 48.444971 -0.000000 57.489044
RightHand 1.280405 -0.000000 29.991355
RightHandThumb1 -24.326973 -0.000000 -32.862282
LeftUpLeg -8.327571 -0.282367 43.218183
LeftLeg 28.986958 -0.000000 -0.000000
LeftFoot -14.757587 6.295544 -33.629961
LeftToeBase -14.584274 -0.000000 0.000000
RightUpLeg -136.729800 -53.388749 19.803260
RightLeg -11.836071 -0.000000 0.000000
RightFoot 37.999446 -25.108930 16.506675
RightToeBase 13.531240 -0.000000 -0.000000
573
root 1.753277 34.425414 -5.341363 14.614182 -19.262199 -46.219849
Spine 4.512022 24.274815 27.764165
Head 8.526818 -5.923483 18.492608
LeftShoulder -21.445092 26.769985 32.083873
LeftArm 78.604674 -76.265691 -59.606698
LeftForeArm 15.925498 -0.000000 13.352990
LeftHand 9.472594 0.000000 16.834867
LeftHandThumb1 -26.253704 0.000000 33.147579
RightShoulder -8.815062 30.379534 -32.058303
RightArm 73.193503 79.124169 111.255454
RightForeArm 48.585715 -0.000000 57.471355
RightHand 1.233029 -0.000000 30.084204
RightHandThumb1 -24.326973 -0.000000 -32.862282
LeftUpLeg -8.232958 -0.247631 43.198303
LeftLeg 28.639330 -0.000000 -0.000000
LeftFoot -14.245735 5.058224 -33.316388
LeftToeBase -14.559293 -0.000000 0.000000
RightUpLeg -136.839060 -53.295407 19.866076
RightLeg -11.931268 -0.000000 0.000000
RightFoot 38.000834 -25.109985 16.780296
RightToeBase 13.583745 -0.000000 -0.000000
